HIERARCHY
ROOT Hips
{
	OFFSET 0.000000 0.000000 0.000000
	CHANNELS 6 Xposition Yposition Zposition Zrotation Yrotation Xrotation 
	JOINT LeftUpLeg_virtual
	{
		OFFSET 0.000000 0.000000 0.000000
		CHANNELS 3 Zrotation Yrotation Xrotation
		JOINT LeftUpLeg
		{
			OFFSET 10.205400 -3.823500 0.155100
			CHANNELS 3 Zrotation Yrotation Xrotation
			JOINT LeftLeg
			{
				OFFSET 0.708757 -12.982077 0.567790
				CHANNELS 3 Zrotation Yrotation Xrotation
				JOINT LeftFoot
				{
					OFFSET -0.708756 -10.717838 -2.184338
					CHANNELS 3 Zrotation Yrotation Xrotation
					JOINT LeftToeBase
					{
						OFFSET 0.108149 -7.191104 7.560241
						CHANNELS 3 Zrotation Yrotation Xrotation
						End Site
						{
							OFFSET 0.000000 0.000000 0.000000
						}
					}
				}
			}
		}
	}
	JOINT RightUpLeg_virtual
	{
		OFFSET 0.000000 0.000000 0.000000
		CHANNELS 3 Zrotation Yrotation Xrotation
		JOINT RightUpLeg
		{
			OFFSET -10.205400 -3.823500 0.005500
			CHANNELS 3 Zrotation Yrotation Xrotation
			JOINT RightLeg
			{
				OFFSET -0.708756 -12.982134 0.610632
				CHANNELS 3 Zrotation Yrotation Xrotation
				JOINT RightFoot
				{
					OFFSET 0.708754 -10.717769 -1.945823
					CHANNELS 3 Zrotation Yrotation Xrotation
					JOINT RightToeBase
					{
						OFFSET -0.108140 -7.191069 7.372968
						CHANNELS 3 Zrotation Yrotation Xrotation
						End Site
						{
							OFFSET 0.000000 0.000000 0.000000
						}
					}
				}
			}
		}
	}
	JOINT Spine_virtual
	{
		OFFSET 0.000000 0.000000 0.000000
		CHANNELS 3 Zrotation Yrotation Xrotation
		JOINT Spine
		{
			OFFSET 0.000000 6.876099 0.125700
			CHANNELS 3 Zrotation Yrotation Xrotation
			JOINT Spine1
			{
				OFFSET 0.000000 8.022060 0.146608
				CHANNELS 3 Zrotation Yrotation Xrotation
				JOINT Spine2
				{
					OFFSET 0.000000 9.168068 0.167552
					CHANNELS 3 Zrotation Yrotation Xrotation
					JOINT Neck_virtual
					{
						OFFSET 0.000000 0.000000 0.000000
						CHANNELS 3 Zrotation Yrotation Xrotation
						JOINT Neck
						{
							OFFSET 0.000000 10.314075 0.188496
							CHANNELS 3 Zrotation Yrotation Xrotation
							JOINT Head
							{
								OFFSET 0.000000 7.643700 -2.377400
								CHANNELS 3 Zrotation Yrotation Xrotation
								End Site
								{
									OFFSET 0.000000 0.000000 0.000000
								}
							}
						}
					}
					JOINT LeftShoulder_virtual
					{
						OFFSET 0.000000 0.000000 0.000000
						CHANNELS 3 Zrotation Yrotation Xrotation
						JOINT LeftShoulder
						{
							OFFSET 4.392200 8.824978 0.174984
							CHANNELS 3 Zrotation Yrotation Xrotation
							JOINT LeftArm
							{
								OFFSET 8.771219 -2.981674 -0.026999
								CHANNELS 3 Zrotation Yrotation Xrotation
								JOINT LeftForeArm
								{
									OFFSET 8.512804 0.000000 -0.000000
									CHANNELS 3 Zrotation Yrotation Xrotation
									JOINT LeftHand
									{
										OFFSET 18.484802 0.000000 -0.000000
										CHANNELS 3 Zrotation Yrotation Xrotation
										End Site
										{
											OFFSET 0.000000 0.000000 0.000000
										}
									}
								}
							}
						}
					}
					JOINT RightShoulder_virtual
					{
						OFFSET 0.000000 0.000000 0.000000
						CHANNELS 3 Zrotation Yrotation Xrotation
						JOINT RightShoulder
						{
							OFFSET -4.392200 8.824993 0.141379
							CHANNELS 3 Zrotation Yrotation Xrotation
							JOINT RightArm
							{
								OFFSET -8.771282 -2.981682 -0.094208
								CHANNELS 3 Zrotation Yrotation Xrotation
								JOINT RightForeArm
								{
									OFFSET -8.494598 0.000000 0.000000
									CHANNELS 3 Zrotation Yrotation Xrotation
									JOINT RightHand
									{
										OFFSET -18.483803 0.000000 0.000001
										CHANNELS 3 Zrotation Yrotation Xrotation
										End Site
										{
											OFFSET 0.000000 0.000000 0.000000
										}
									}
								}
							}
						}
					}
				}
			}
		}
	}
}
MOTION
Frames: 8
Frame Time: 0.033333
-0.067770 23.603334 -0.736459 -179.903877 4.873515 179.924367 0.930051 -5.169141 -1.645489 0.313090 12.136229 -76.664065 8.071807 -0.989612 99.272947 -1.754484 -5.766787 -6.140348 0.000000 0.000000 0.000000 3.100308 -1.596992 -1.955066 8.143453 -12.064161 -76.739306 0.818489 0.995908 90.930971 -2.997971 7.388643 -6.187981 0.000000 0.000000 0.000000 -1.701092 -1.629587 0.470990 1.046655 6.216923 -5.404477 -1.397862 -6.297584 11.102250 0.025449 0.012211 -0.004918 -1.447016 -5.733209 16.465588 -2.899781 11.506044 14.699236 0.000000 0.000000 0.000000 0.096521 -5.434763 12.162096 -2.268919 1.598743 4.834764 -14.953391 -23.100219 -9.552475 -151.248938 -77.419074 172.455228 0.000000 0.000000 0.000000 -3.128834 -4.326654 11.608848 15.635823 23.894763 2.727332 57.737140 -11.960677 8.451038 -145.712169 82.156323 -149.511611 0.000000 0.000000 0.000000 
-0.058380 23.623896 -0.757277 -179.891910 4.961346 179.963969 0.951981 -5.235512 -1.572236 0.496899 12.109485 -76.580600 7.967919 -0.951136 99.232362 -1.756439 -5.731119 -6.278638 0.000000 0.000000 0.000000 3.130472 -1.577559 -1.899711 8.217225 -12.186053 -76.805948 0.824724 0.923170 90.876159 -2.918521 7.357867 -6.144735 0.000000 0.000000 0.000000 -1.702115 -1.687415 0.433072 0.975102 6.036738 -5.291338 -1.415532 -6.219742 11.094562 0.040763 -0.005162 -0.010652 -1.335586 -5.643022 16.431586 -3.226232 11.710661 13.886254 0.000000 0.000000 0.000000 0.220447 -5.294148 12.150477 -2.038391 1.512017 5.009006 -15.197002 -22.448653 -9.282729 -151.550723 -77.529067 172.677974 0.000000 0.000000 0.000000 -2.970658 -4.100934 11.621530 15.573999 23.673898 2.694149 57.931281 -11.966993 8.867905 -145.302357 82.171854 -148.955757 0.000000 0.000000 0.000000 
-0.085065 23.647980 -0.780087 -179.917947 5.028014 179.980238 0.996479 -5.460918 -1.515861 0.691016 11.932425 -76.355416 7.873875 -0.897569 99.309680 -1.633540 -5.582107 -6.468615 0.000000 0.000000 0.000000 3.138325 -1.849179 -1.983863 8.224960 -12.338627 -76.733296 0.761619 0.838813 90.640005 -2.676693 7.511936 -5.712677 0.000000 0.000000 0.000000 -1.716843 -1.857499 0.421531 0.829105 5.956725 -5.112701 -1.253645 -6.120660 11.069039 0.019888 -0.016756 -0.016152 -1.282476 -5.474943 16.336131 -3.670367 11.733302 12.898287 0.000000 0.000000 0.000000 0.256856 -5.192107 12.123681 -1.879440 1.406835 4.955276 -15.687730 -22.146093 -9.236767 -151.906932 -77.299088 172.928860 0.000000 0.000000 0.000000 -2.948363 -3.970449 11.618118 15.525413 23.441286 2.666156 58.065672 -12.036062 8.857185 -144.249579 82.556818 -147.896927 0.000000 0.000000 0.000000 
-0.132079 23.663231 -0.806128 -179.938697 4.996756 179.999076 1.030965 -5.934625 -1.347969 0.749409 11.772342 -76.340478 7.744846 -0.834002 99.460429 -1.492476 -5.441606 -6.684895 0.000000 0.000000 0.000000 3.068145 -2.268021 -1.930632 8.222101 -12.566920 -76.831931 0.294247 0.512433 90.326431 -2.291079 7.986713 -5.168232 0.000000 0.000000 0.000000 -1.659126 -2.099867 0.435736 0.771759 5.910483 -4.928427 -1.254556 -6.025038 11.033159 -0.015945 -0.025316 -0.014228 -1.212126 -5.456589 16.231584 -4.319194 12.133690 11.805221 0.000000 0.000000 0.000000 0.357455 -5.102571 12.139122 -1.866104 1.403751 4.797296 -16.291651 -22.371144 -9.728036 -152.643281 -76.985781 173.521857 0.000000 0.000000 0.000000 -2.846633 -3.837232 11.562095 15.483940 23.169357 2.774067 58.181703 -12.057211 8.596087 -141.080658 82.899106 -144.442518 0.000000 0.000000 0.000000 
-0.169904 23.664871 -0.820115 179.861748 5.030577 179.921485 0.887048 -6.182946 -1.201248 0.824236 11.626923 -76.293281 7.613334 -0.776674 99.608146 -1.332604 -5.341931 -6.875487 0.000000 0.000000 0.000000 3.010960 -2.646329 -1.967450 8.377468 -12.917884 -76.963678 0.688115 0.377955 90.269597 -2.329344 7.898506 -4.925556 0.000000 0.000000 0.000000 -1.797921 -2.293026 0.589496 0.761234 5.894899 -4.768671 -1.266763 -5.929366 10.985665 -0.025463 0.008262 0.027756 -1.244095 -5.393654 16.027298 -5.088144 12.430032 10.621937 0.000000 0.000000 0.000000 0.352558 -4.970245 12.034623 -2.019443 1.382605 4.805978 -16.838424 -22.853519 -10.955721 -153.805861 -76.607265 174.480078 0.000000 0.000000 0.000000 -2.890984 -3.784265 11.472067 15.541057 22.883019 2.759247 58.243120 -12.116818 8.138999 -138.939011 83.323151 -142.275149 0.000000 0.000000 0.000000 
-0.180383 23.661762 -0.816983 179.916199 4.947879 179.934503 0.951818 -6.388270 -1.065886 0.752151 11.560374 -76.467540 7.070963 -0.741134 99.627031 -0.982643 -4.866094 -6.827466 0.000000 0.000000 0.000000 3.163657 -2.857670 -1.920216 8.435331 -13.304939 -77.179963 0.689740 0.242755 90.228991 -2.342617 7.978569 -4.870704 0.000000 0.000000 0.000000 -1.638889 -2.418266 0.785674 0.726357 5.823094 -4.715012 -1.323568 -5.886186 10.897504 0.024605 0.014717 0.018698 -1.340854 -5.318992 15.889163 -6.013391 12.750354 9.411248 0.000000 0.000000 0.000000 0.275723 -4.959630 11.975012 -2.251190 1.661984 4.565723 -17.262224 -23.614667 -12.676942 -154.418146 -76.228770 174.825194 0.000000 0.000000 0.000000 -2.956709 -3.718731 11.412540 15.758920 22.733122 2.760193 58.318389 -12.175810 7.959067 -137.029304 83.434722 -140.251719 0.000000 0.000000 0.000000 
-0.140953 23.659056 -0.811824 179.959707 4.734128 179.955431 1.022206 -6.548660 -0.904652 0.963582 11.418211 -76.653656 7.278452 -0.673296 99.511772 -1.134342 -5.182139 -6.730704 0.000000 0.000000 0.000000 3.288047 -2.976238 -1.796256 8.562367 -13.594649 -77.398242 0.594934 -0.031843 90.320284 -2.429417 8.047258 -4.934330 0.000000 0.000000 0.000000 -1.569326 -2.482466 1.008175 0.772832 5.710862 -4.723847 -1.363423 -5.881913 10.772802 0.034602 0.005953 -0.001477 -1.417253 -5.297611 15.779588 -6.976753 13.085132 8.208178 0.000000 0.000000 0.000000 0.240162 -4.982477 11.870554 -2.491136 1.886593 4.574090 -17.272657 -24.354672 -14.806739 -155.684982 -76.033680 175.728760 0.000000 0.000000 0.000000 -2.976499 -3.696331 11.376123 16.108110 22.654455 2.965955 58.414141 -12.124932 7.929298 -136.023764 83.394731 -139.112157 0.000000 0.000000 0.000000 
-0.060626 23.666561 -0.800606 179.880463 4.552798 179.903822 0.952883 -6.528458 -0.753349 1.104147 11.393186 -76.708652 7.176497 -0.662726 99.310008 -1.133865 -5.234958 -6.584236 0.000000 0.000000 0.000000 3.249259 -3.059112 -1.585506 8.682844 -13.766176 -77.606740 0.503556 -0.240801 90.366292 -2.631104 8.023316 -4.839448 0.000000 0.000000 0.000000 -1.612344 -2.498694 1.308985 0.802319 5.576303 -4.689296 -1.360639 -5.885123 10.644854 0.000460 -0.001635 0.009173 -1.479569 -5.254700 15.655524 -7.983972 13.391036 7.063207 0.000000 0.000000 0.000000 0.242069 -4.899417 11.788177 -2.698070 2.205607 4.312946 -17.046339 -25.045433 -16.489844 -155.949229 -75.833978 175.515945 0.000000 0.000000 0.000000 -2.976561 -3.657854 11.318752 16.450944 22.716343 3.030263 58.493597 -12.126378 7.939441 -137.769014 83.274103 -140.729491 0.000000 0.000000 0.000000 
